<svg preserveAspectRatio="none" width="100%" height="100%" overflow="visible" style="display: block;" viewBox="0 0 32 32" fill="none" xmlns="http://www.w3.org/2000/svg">
<g id="Frame">
<path id="Vector" d="M18.808 7.40284C19.1781 7.5878 19.5862 7.68409 20 7.68409C20.4138 7.68409 20.8219 7.5878 21.192 7.40284L26.0707 4.96284C26.2741 4.86119 26.5002 4.81326 26.7273 4.8236C26.9545 4.83395 27.1753 4.90223 27.3686 5.02195C27.562 5.14167 27.7215 5.30886 27.832 5.50762C27.9425 5.70638 28.0003 5.9301 28 6.15751V23.1762C27.9999 23.4237 27.9308 23.6664 27.8006 23.8769C27.6704 24.0874 27.4841 24.2575 27.2627 24.3682L21.192 27.4042C20.8219 27.5891 20.4138 27.6854 20 27.6854C19.5862 27.6854 19.1781 27.5891 18.808 27.4042L13.192 24.5962C12.8219 24.4112 12.4138 24.3149 12 24.3149C11.5862 24.3149 11.1781 24.4112 10.808 24.5962L5.92934 27.0362C5.72581 27.1379 5.49963 27.1858 5.27235 27.1754C5.04506 27.165 4.82421 27.0966 4.63083 26.9767C4.43744 26.8568 4.27795 26.6895 4.16753 26.4905C4.05711 26.2916 3.99944 26.0677 4 25.8402V8.82284C4.00014 8.57529 4.06918 8.33267 4.19941 8.12214C4.32963 7.91161 4.5159 7.7415 4.73734 7.63084L10.808 4.59484C11.1781 4.40989 11.5862 4.3136 12 4.3136C12.4138 4.3136 12.8219 4.40989 13.192 4.59484L18.808 7.40284Z" stroke="var(--stroke-0, #BC592D)" stroke-width="2" stroke-linecap="round"/>
<path id="Vector_2" d="M20 7.6864V27.6864" stroke="var(--stroke-0, #BC592D)" stroke-width="2" stroke-linecap="round"/>
<path id="Vector_3" d="M12 4.3136V24.3136" stroke="var(--stroke-0, #BC592D)" stroke-width="2" stroke-linecap="round"/>
</g>
</svg>
