<svg preserveAspectRatio="none" width="100%" height="100%" overflow="visible" style="display: block;" viewBox="0 0 32 32" fill="none" xmlns="http://www.w3.org/2000/svg">
<g id="Frame">
<path id="Vector" d="M15.368 3.05879C15.4264 2.94074 15.5167 2.84137 15.6286 2.77189C15.7405 2.70242 15.8696 2.6656 16.0013 2.6656C16.1331 2.6656 16.2622 2.70242 16.3741 2.77189C16.486 2.84137 16.5762 2.94074 16.6347 3.05879L19.7147 9.29746C19.9176 9.70808 20.2171 10.0633 20.5875 10.3327C20.9579 10.6021 21.3882 10.7776 21.8413 10.8441L28.7293 11.8521C28.8598 11.871 28.9825 11.9261 29.0833 12.0111C29.1842 12.096 29.2592 12.2075 29.3 12.3329C29.3408 12.4583 29.3457 12.5927 29.3141 12.7207C29.2825 12.8487 29.2158 12.9654 29.1213 13.0575L24.14 17.9081C23.8115 18.2283 23.5657 18.6234 23.4238 19.0596C23.2819 19.4958 23.2481 19.96 23.3253 20.4121L24.5013 27.2655C24.5244 27.3959 24.5103 27.5302 24.4607 27.653C24.411 27.7759 24.3279 27.8823 24.2207 27.9601C24.1135 28.038 23.9866 28.0841 23.8545 28.0933C23.7223 28.1025 23.5903 28.0744 23.4733 28.0121L17.316 24.7748C16.9103 24.5618 16.4589 24.4505 16.0007 24.4505C15.5424 24.4505 15.091 24.5618 14.6853 24.7748L8.52933 28.0121C8.41244 28.074 8.28053 28.1018 8.1486 28.0925C8.01667 28.0831 7.89002 28.0369 7.78306 27.9591C7.6761 27.8813 7.59311 27.775 7.54354 27.6524C7.49397 27.5298 7.47981 27.3957 7.50267 27.2655L8.67733 20.4135C8.75493 19.9611 8.72131 19.4967 8.57938 19.0602C8.43746 18.6237 8.19148 18.2283 7.86267 17.9081L2.88133 13.0588C2.78612 12.9668 2.71866 12.85 2.68662 12.7216C2.65458 12.5931 2.65925 12.4583 2.7001 12.3324C2.74096 12.2065 2.81636 12.0946 2.9177 12.0094C3.01905 11.9243 3.14227 11.8693 3.27333 11.8508L10.16 10.8441C10.6137 10.7781 11.0445 10.6029 11.4154 10.3334C11.7864 10.064 12.0863 9.70849 12.2893 9.29746L15.368 3.05879Z" stroke="var(--stroke-0, #BC592D)" stroke-width="2" stroke-linecap="round"/>
</g>
</svg>
